<?xml version="1.0" encoding="UTF-8" standalone="no"?>
<svg
   xmlns:dc="http://purl.org/dc/elements/1.1/"
   xmlns:cc="http://creativecommons.org/ns#"
   xmlns:rdf="http://www.w3.org/1999/02/22-rdf-syntax-ns#"
   xmlns:svg="http://www.w3.org/2000/svg"
   xmlns="http://www.w3.org/2000/svg"
   xmlns:sodipodi="http://sodipodi.sourceforge.net/DTD/sodipodi-0.dtd"
   xmlns:inkscape="http://www.inkscape.org/namespaces/inkscape"
   width="24"
   height="24"
   viewBox="0 0 24 24"
   fill="none"
   version="1.1"
   id="svg835"
   sodipodi:docname="Facebook-orange.svg"
   inkscape:version="1.0.1 (c497b03c, 2020-09-10)">
  <metadata
     id="metadata841">
    <rdf:RDF>
      <cc:Work
         rdf:about="">
        <dc:format>image/svg+xml</dc:format>
        <dc:type
           rdf:resource="http://purl.org/dc/dcmitype/StillImage" />
      </cc:Work>
    </rdf:RDF>
  </metadata>
  <defs
     id="defs839" />
  <sodipodi:namedview
     pagecolor="#ffffff"
     bordercolor="#666666"
     borderopacity="1"
     objecttolerance="10"
     gridtolerance="10"
     guidetolerance="10"
     inkscape:pageopacity="0"
     inkscape:pageshadow="2"
     inkscape:window-width="838"
     inkscape:window-height="480"
     id="namedview837"
     showgrid="false"
     inkscape:zoom="21.416667"
     inkscape:cx="12"
     inkscape:cy="12"
     inkscape:window-x="0"
     inkscape:window-y="23"
     inkscape:window-maximized="0"
     inkscape:current-layer="svg835" />
  <path
     d="M14.2 2.875C12.9734 2.875 11.797 3.36228 10.9296 4.22963C10.0623 5.09699 9.575 6.27337 9.575 7.5V10.075H7.1C6.97574 10.075 6.875 10.1757 6.875 10.3V13.7C6.875 13.8243 6.97574 13.925 7.1 13.925H9.575V20.9C9.575 21.0243 9.67574 21.125 9.8 21.125H13.2C13.3243 21.125 13.425 21.0243 13.425 20.9V13.925H15.9219C16.0252 13.925 16.1152 13.8547 16.1402 13.7546L16.9902 10.3546C17.0257 10.2126 16.9183 10.075 16.7719 10.075H13.425V7.5C13.425 7.29446 13.5067 7.09733 13.652 6.95199C13.7973 6.80665 13.9945 6.725 14.2 6.725H16.8C16.9243 6.725 17.025 6.62426 17.025 6.5V3.1C17.025 2.97574 16.9243 2.875 16.8 2.875H14.2Z"
     fill="black"
     id="path833"
     style="fill:#f7a26c;fill-opacity:1" />
</svg>
