<?xml version="1.0" encoding="UTF-8" standalone="no"?>
<svg
   xmlns:dc="http://purl.org/dc/elements/1.1/"
   xmlns:cc="http://creativecommons.org/ns#"
   xmlns:rdf="http://www.w3.org/1999/02/22-rdf-syntax-ns#"
   xmlns:svg="http://www.w3.org/2000/svg"
   xmlns="http://www.w3.org/2000/svg"
   xmlns:sodipodi="http://sodipodi.sourceforge.net/DTD/sodipodi-0.dtd"
   xmlns:inkscape="http://www.inkscape.org/namespaces/inkscape"
   width="24"
   height="24"
   viewBox="0 0 24 24"
   fill="none"
   version="1.1"
   id="svg839"
   sodipodi:docname="Linkedin-orange.svg"
   inkscape:version="1.0.1 (c497b03c, 2020-09-10)">
  <metadata
     id="metadata845">
    <rdf:RDF>
      <cc:Work
         rdf:about="">
        <dc:format>image/svg+xml</dc:format>
        <dc:type
           rdf:resource="http://purl.org/dc/dcmitype/StillImage" />
      </cc:Work>
    </rdf:RDF>
  </metadata>
  <defs
     id="defs843" />
  <sodipodi:namedview
     pagecolor="#ffffff"
     bordercolor="#666666"
     borderopacity="1"
     objecttolerance="10"
     gridtolerance="10"
     guidetolerance="10"
     inkscape:pageopacity="0"
     inkscape:pageshadow="2"
     inkscape:window-width="1176"
     inkscape:window-height="699"
     id="namedview841"
     showgrid="false"
     inkscape:zoom="21.416667"
     inkscape:cx="21.898833"
     inkscape:cy="17.929961"
     inkscape:window-x="0"
     inkscape:window-y="23"
     inkscape:window-maximized="0"
     inkscape:current-layer="svg839"
     inkscape:document-rotation="0" />
  <path
     d="M4.75 1.875C3.57639 1.875 2.625 2.82639 2.625 4C2.625 5.1736 3.57639 6.125 4.75 6.125C5.9236 6.125 6.875 5.1736 6.875 4C6.875 2.82639 5.9236 1.875 4.75 1.875Z"
     fill="black"
     id="path833"
     style="fill:#f7a26c;fill-opacity:1" />
  <path
     d="M2.75 7.875C2.68096 7.875 2.625 7.93096 2.625 8V21C2.625 21.069 2.68096 21.125 2.75 21.125H6.75C6.81904 21.125 6.875 21.069 6.875 21V8C6.875 7.93096 6.81904 7.875 6.75 7.875H2.75Z"
     fill="black"
     id="path835"
     style="fill:#f7a26c;fill-opacity:1" />
  <path
     d="M 9.25,7.875 C 9.18096,7.875 9.125,7.93096 9.125,8 v 13 c 0,0.069 0.05596,0.125 0.125,0.125 h 4 c 0.069,0 0.125,-0.056 0.125,-0.125 v -7 c 0,-0.4973 0.1975,-0.9742 0.5492,-1.3258 0.3516,-0.3517 0.8285,-0.5492 1.3258,-0.5492 0.4973,0 0.9742,0.1975 1.3258,0.5492 0.3517,0.3516 0.5492,0.8285 0.5492,1.3258 v 7 c 0,0.069 0.056,0.125 0.125,0.125 h 4 c 0.069,0 0.125,-0.056 0.125,-0.125 v -8.6198 c 0,-2.4267 -2.1106,-4.32521 -4.5252,-4.1057 -0.7446,0.06769 -1.4808,0.25281 -2.1683,0.54744 L 13.375,9.38186 V 8 c 0,-0.06904 -0.056,-0.125 -0.125,-0.125 z"
     fill="black"
     id="path837"
     style="fill:#f7a26c;fill-opacity:1;stroke-width:1" />
</svg>
