<?xml version="1.0" encoding="UTF-8" standalone="no"?>
<svg
   xmlns:dc="http://purl.org/dc/elements/1.1/"
   xmlns:cc="http://creativecommons.org/ns#"
   xmlns:rdf="http://www.w3.org/1999/02/22-rdf-syntax-ns#"
   xmlns:svg="http://www.w3.org/2000/svg"
   xmlns="http://www.w3.org/2000/svg"
   xmlns:sodipodi="http://sodipodi.sourceforge.net/DTD/sodipodi-0.dtd"
   xmlns:inkscape="http://www.inkscape.org/namespaces/inkscape"
   id="Solid_Communication_Envelope"
   data-name="Solid / Communication /Envelope"
   width="24"
   height="24"
   viewBox="0 0 24 24"
   version="1.1"
   sodipodi:docname="mail.svg"
   inkscape:version="1.0.1 (c497b03c, 2020-09-10)">
  <metadata
     id="metadata841">
    <rdf:RDF>
      <cc:Work
         rdf:about="">
        <dc:format>image/svg+xml</dc:format>
        <dc:type
           rdf:resource="http://purl.org/dc/dcmitype/StillImage" />
      </cc:Work>
    </rdf:RDF>
  </metadata>
  <defs
     id="defs839" />
  <sodipodi:namedview
     pagecolor="#ffffff"
     bordercolor="#666666"
     borderopacity="1"
     objecttolerance="10"
     gridtolerance="10"
     guidetolerance="10"
     inkscape:pageopacity="0"
     inkscape:pageshadow="2"
     inkscape:window-width="860"
     inkscape:window-height="480"
     id="namedview837"
     showgrid="false"
     inkscape:zoom="21.416667"
     inkscape:cx="12"
     inkscape:cy="12"
     inkscape:window-x="0"
     inkscape:window-y="23"
     inkscape:window-maximized="0"
     inkscape:current-layer="Solid_Communication_Envelope" />
  <g
     id="Envelope"
     transform="translate(2 4)"
     style="fill:#ffffff">
    <path
       id="Path"
       d="M3.94.2a54.4,54.4,0,0,1,9.422,0l1.51.131A2.889,2.889,0,0,1,17.184,1.88a.236.236,0,0,1-.091.308L10.827,6.067a4.25,4.25,0,0,1-4.4.045L.12,2.385a.236.236,0,0,1-.1-.293A2.889,2.889,0,0,1,2.43.336Z"
       transform="translate(1.349 0.703)"
       style="fill:#ffffff" />
    <path
       id="Path-2"
       data-name="Path"
       d="M.526.253A.248.248,0,0,0,.153.44,30.351,30.351,0,0,0,.337,8a2.888,2.888,0,0,0,2.606,2.448l1.51.131a54.394,54.394,0,0,0,9.422,0l1.51-.131A2.888,2.888,0,0,0,17.991,8,30.349,30.349,0,0,0,18.153.22a.248.248,0,0,0-.377-.183L12.131,3.532a5.75,5.75,0,0,1-5.952.061Z"
       transform="translate(0.836 4.514)"
       style="fill:#ffffff" />
  </g>
</svg>
