<?xml version="1.0" encoding="UTF-8" standalone="no"?>
<svg
   xmlns:dc="http://purl.org/dc/elements/1.1/"
   xmlns:cc="http://creativecommons.org/ns#"
   xmlns:rdf="http://www.w3.org/1999/02/22-rdf-syntax-ns#"
   xmlns:svg="http://www.w3.org/2000/svg"
   xmlns="http://www.w3.org/2000/svg"
   xmlns:sodipodi="http://sodipodi.sourceforge.net/DTD/sodipodi-0.dtd"
   xmlns:inkscape="http://www.inkscape.org/namespaces/inkscape"
   version="1.1"
   x="0px"
   y="0px"
   width="60px"
   height="97.158px"
   viewBox="0 0 60 97.158"
   enable-background="new 0 0 60 97.158"
   xml:space="preserve"
   id="svg850"
   sodipodi:docname="erau.svg"
   inkscape:version="1.0.1 (c497b03c, 2020-09-10)"><metadata
   id="metadata856"><rdf:RDF><cc:Work
       rdf:about=""><dc:format>image/svg+xml</dc:format><dc:type
         rdf:resource="http://purl.org/dc/dcmitype/StillImage" /></cc:Work></rdf:RDF></metadata><defs
   id="defs854" /><sodipodi:namedview
   pagecolor="#ffffff"
   bordercolor="#666666"
   borderopacity="1"
   objecttolerance="10"
   gridtolerance="10"
   guidetolerance="10"
   inkscape:pageopacity="0"
   inkscape:pageshadow="2"
   inkscape:window-width="863"
   inkscape:window-height="480"
   id="namedview852"
   showgrid="false"
   inkscape:zoom="5.290352"
   inkscape:cx="30"
   inkscape:cy="48.578999"
   inkscape:window-x="0"
   inkscape:window-y="23"
   inkscape:window-maximized="0"
   inkscape:current-layer="svg850" />
<g
   id="Guides_For_Artboard">
</g>
<g
   id="Layer_1"
   style="fill:#1a1a1a">
	<g
   id="g846"
   style="fill:#1a1a1a">
		<g
   id="g836"
   style="fill:#1a1a1a">
			<path
   fill="#164194"
   d="M49.658,3.957c-0.636,0-1.158,0.522-1.158,1.158v15.782H34.678c0.143,0.719,0.279,1.497,0.397,2.311H48.5     v54.423c0,0.642,0.522,1.158,1.158,1.158c4.426,0,8.025,3.6,8.025,8.024c0,2.216-0.897,4.224-2.353,5.673     c-0.451,0.458-0.962,0.855-1.515,1.194c-0.439,0.273-0.909,0.499-1.402,0.677c-0.124,0.042-0.249,0.083-0.374,0.125     c-0.374,0.118-0.767,0.208-1.164,0.268c-0.397,0.065-0.802,0.095-1.218,0.095H10.342c-0.416,0-0.826-0.029-1.224-0.095     c-0.398-0.06-0.784-0.149-1.165-0.268c-0.124-0.042-0.249-0.083-0.374-0.125c-0.487-0.178-0.956-0.403-1.401-0.677     c-0.553-0.339-1.063-0.736-1.515-1.194c-1.456-1.449-2.353-3.457-2.353-5.673c0-4.425,3.605-8.024,8.031-8.024     c0.635,0,1.152-0.517,1.152-1.158V23.208h13.816c0.143-0.778,0.291-1.557,0.451-2.311H11.494V5.115     c0-0.636-0.518-1.158-1.152-1.158C4.639,3.957,0,8.596,0,14.298v72.516c0,5.703,4.639,10.342,10.342,10.342h39.316     C55.36,97.155,60,92.517,60,86.813V14.298C60,8.596,55.36,3.957,49.658,3.957z M2.311,14.298c0-2.394,1.058-4.55,2.727-6.017     C5.565,7.817,6.153,7.42,6.789,7.104C7.104,6.95,7.437,6.808,7.775,6.695C8.227,6.54,8.696,6.428,9.184,6.356v70.188     c-2.763,0.309-5.204,1.71-6.873,3.76V14.298z M57.684,80.304c-0.422-0.517-0.886-0.986-1.391-1.408     c-0.38-0.32-0.777-0.611-1.205-0.873c-0.422-0.262-0.861-0.493-1.325-0.695c-0.611-0.267-1.259-0.475-1.925-0.617     c-0.332-0.071-0.677-0.131-1.021-0.166V6.356c0.487,0.071,0.957,0.184,1.408,0.339c0.339,0.112,0.671,0.255,0.986,0.409     c0.635,0.315,1.223,0.713,1.752,1.177c0.089,0.077,0.172,0.154,0.255,0.237c0.09,0.083,0.173,0.166,0.25,0.249     c1.372,1.444,2.216,3.392,2.216,5.53V80.304z"
   id="path834"
   style="fill:#1a1a1a" />
		</g>
		<g
   id="g840"
   style="fill:#1a1a1a">
			<path
   fill="#164194"
   d="M49.658,3.957c-0.636,0-1.158,0.522-1.158,1.158v15.782H34.678c0.143,0.719,0.279,1.497,0.397,2.311H48.5     v54.423c0,0.642,0.522,1.158,1.158,1.158c4.426,0,8.025,3.6,8.025,8.024c0,2.216-0.897,4.224-2.353,5.673     c-0.457,0.458-0.962,0.855-1.515,1.194c-0.439,0.267-0.909,0.493-1.402,0.677c-0.124,0.042-0.249,0.083-0.374,0.125     c-0.374,0.118-0.767,0.208-1.164,0.268c-0.397,0.065-0.802,0.095-1.218,0.095H10.342c-0.416,0-0.826-0.029-1.224-0.095     c-0.398-0.06-0.784-0.149-1.165-0.268c-0.124-0.042-0.249-0.083-0.374-0.125c-0.487-0.184-0.956-0.41-1.401-0.677     c-0.553-0.339-1.058-0.736-1.515-1.194c-1.456-1.449-2.353-3.457-2.353-5.673c0-4.425,3.605-8.024,8.031-8.024     c0.635,0,1.152-0.517,1.152-1.158V23.208h13.816c0.143-0.778,0.291-1.557,0.451-2.311H11.494V5.115     c0-0.636-0.518-1.158-1.152-1.158C4.639,3.957,0,8.596,0,14.298v72.516c0,5.703,4.639,10.342,10.342,10.342h39.316     C55.36,97.155,60,92.517,60,86.813V14.298C60,8.596,55.36,3.957,49.658,3.957z M2.311,14.298c0-2.394,1.058-4.55,2.727-6.017     c0.528-0.47,1.116-0.861,1.752-1.177c0.315-0.16,0.647-0.297,0.986-0.409C8.227,6.54,8.696,6.428,9.184,6.356v70.188     c-2.763,0.309-5.204,1.71-6.873,3.76V14.298z M57.684,80.304c-0.422-0.517-0.886-0.986-1.391-1.408     c-0.38-0.32-0.777-0.611-1.205-0.873c-0.422-0.262-0.861-0.493-1.325-0.695c-0.611-0.267-1.259-0.475-1.925-0.617     c-0.332-0.077-0.677-0.131-1.021-0.173V6.356c0.487,0.071,0.957,0.184,1.408,0.339c0.339,0.112,0.671,0.249,0.986,0.409     c0.635,0.315,1.223,0.707,1.752,1.177c0.089,0.077,0.172,0.154,0.255,0.237c0.09,0.083,0.173,0.166,0.25,0.249     c1.372,1.444,2.216,3.392,2.216,5.53V80.304z"
   id="path838"
   style="fill:#1a1a1a" />
		</g>
		<g
   id="g844"
   style="fill:#1a1a1a">
			<path
   fill="#164194"
   d="M37.998,54.197c0.25-0.214,0.404-0.522,0.416-0.855c0.041-0.968,0.707-18.657-0.95-30.134     c-0.119-0.808-0.244-1.58-0.387-2.311c-0.469-2.471-1.081-4.509-1.871-5.815c-0.184-0.297-0.487-0.505-0.831-0.558     c-0.102-0.019-0.208-0.019-0.315-0.007c0.155-0.344,0.31-0.677,0.452-0.944c0.118-0.231,0.154-0.499,0.106-0.754     c-1.765-9.771-4.687-12.005-5.257-12.355c-0.754-0.463-1.58-0.582-2.376-0.345c-0.309,0.095-0.564,0.321-0.713,0.606     s-0.172,0.629-0.065,0.933c0.012,0.035,1.129,3.457-1.093,11.708c-0.06,0.219-0.992,3.611-1.782,7.531     c-0.154,0.754-0.303,1.532-0.439,2.311c-0.268,1.545-0.487,3.095-0.6,4.503c-0.024,0.261-0.659,6.421-0.434,10.876     c0.012,0.237,0.095,0.463,0.237,0.653c0.397,0.522,0.903,1.295,1.277,1.99c-0.16-0.013-0.297-0.036-0.41-0.06     c-0.339-0.065-0.689,0.018-0.962,0.231c-0.273,0.214-0.439,0.534-0.452,0.879c-0.035,0.736-0.808,18.076,1.824,27.812     c0.137,0.6,1.432,5.887,5.103,7.122c0.089,0.029,0.184,0.048,0.273,0.054v13.937c0,0.653,0.534,1.182,1.188,1.182     c0.659,0,1.188-0.528,1.188-1.182V77.298l0.083-0.012c1.604-0.226,6.837-2.328,6.837-19.935c0-0.393-0.202-0.755-0.522-0.975     c-0.321-0.226-0.737-0.268-1.1-0.131c-0.006,0-0.125,0.048-0.32,0.096C36.923,55.124,37.98,54.209,37.998,54.197z M36.062,52.754     c-0.767,0.73-2.411,2.477-3.023,4.49c-0.101,0.327-0.06,0.678,0.119,0.969c0.178,0.291,0.475,0.487,0.808,0.546     c0.611,0.113,1.194,0.113,1.693,0.065c-0.238,13.323-3.653,15.658-4.532,16.038V25.608c0-0.654-0.529-1.188-1.188-1.188     c-0.653,0-1.188,0.534-1.188,1.188v49.129c-1.753-1.016-2.792-4.009-3.071-5.215c-2.15-7.96-1.931-21.688-1.806-25.881     c0.475,0.012,1.01-0.023,1.49-0.16c0.57-0.16,0.939-0.713,0.861-1.301c-0.189-1.402-1.443-3.279-2.008-4.069     c-0.172-4.247,0.434-10.098,0.44-10.181c0.118-1.455,0.362-3.095,0.653-4.723c0.143-0.778,0.291-1.557,0.451-2.311     c0.767-3.707,1.628-6.849,1.64-6.902c1.413-5.251,1.567-8.756,1.426-10.822c1.419,1.865,2.756,6.403,3.386,9.682     c-0.404,0.832-1.212,2.632-1.271,3.784c-0.018,0.362,0.131,0.713,0.404,0.95c0.267,0.237,0.629,0.339,0.985,0.279     c0.096-0.018,0.672-0.125,1.378-0.457c0.375,0.932,0.695,2.114,0.969,3.486c0.143,0.719,0.279,1.497,0.397,2.311     C36.395,32.166,36.299,46.208,36.062,52.754z"
   id="path842"
   style="fill:#1a1a1a" />
		</g>
	</g>
</g>
<g
   id="Layer_2">
</g>
</svg>
