<?xml version="1.0" encoding="UTF-8" standalone="no"?>
<svg
   xmlns:dc="http://purl.org/dc/elements/1.1/"
   xmlns:cc="http://creativecommons.org/ns#"
   xmlns:rdf="http://www.w3.org/1999/02/22-rdf-syntax-ns#"
   xmlns:svg="http://www.w3.org/2000/svg"
   xmlns="http://www.w3.org/2000/svg"
   xmlns:sodipodi="http://sodipodi.sourceforge.net/DTD/sodipodi-0.dtd"
   xmlns:inkscape="http://www.inkscape.org/namespaces/inkscape"
   version="1.1"
   x="0px"
   y="0px"
   width="60px"
   height="97.158px"
   viewBox="0 0 60 97.158"
   enable-background="new 0 0 60 97.158"
   xml:space="preserve"
   id="svg850"
   sodipodi:docname="erau-orange.svg"
   inkscape:version="1.0.1 (c497b03c, 2020-09-10)"><metadata
   id="metadata856"><rdf:RDF><cc:Work
       rdf:about=""><dc:format>image/svg+xml</dc:format><dc:type
         rdf:resource="http://purl.org/dc/dcmitype/StillImage" /></cc:Work></rdf:RDF></metadata><defs
   id="defs854" /><sodipodi:namedview
   pagecolor="#ffffff"
   bordercolor="#666666"
   borderopacity="1"
   objecttolerance="10"
   gridtolerance="10"
   guidetolerance="10"
   inkscape:pageopacity="0"
   inkscape:pageshadow="2"
   inkscape:window-width="1011"
   inkscape:window-height="605"
   id="namedview852"
   showgrid="false"
   inkscape:zoom="5.290352"
   inkscape:cx="30"
   inkscape:cy="48.578999"
   inkscape:window-x="0"
   inkscape:window-y="23"
   inkscape:window-maximized="0"
   inkscape:current-layer="svg850"
   inkscape:document-rotation="0" />
<g
   id="Guides_For_Artboard">
</g>
<g
   id="Layer_1"
   style="fill:#f7a26c;fill-opacity:1">
	<g
   id="g846"
   style="fill:#f7a26c;fill-opacity:1">
		<g
   id="g836"
   style="fill:#f7a26c;fill-opacity:1">
			<path
   fill="#164194"
   d="M 49.658,3.957 C 49.022,3.957 48.5,4.479 48.5,5.115 V 20.897 H 34.678 c 0.143,0.719 0.279,1.497 0.397,2.311 H 48.5 v 54.423 c 0,0.642 0.522,1.158 1.158,1.158 4.426,0 8.025,3.6 8.025,8.024 0,2.216 -0.897,4.224 -2.353,5.673 -0.451,0.458 -0.962,0.855 -1.515,1.194 -0.439,0.273 -0.909,0.499 -1.402,0.677 -0.124,0.042 -0.249,0.083 -0.374,0.125 -0.374,0.118 -0.767,0.208 -1.164,0.268 -0.397,0.065 -0.802,0.095 -1.218,0.095 H 10.342 C 9.926,94.845 9.516,94.816 9.118,94.75 8.72,94.69 8.334,94.601 7.953,94.482 7.829,94.44 7.704,94.399 7.579,94.357 7.092,94.179 6.623,93.954 6.178,93.68 5.625,93.341 5.115,92.944 4.663,92.486 3.207,91.037 2.31,89.029 2.31,86.813 c 0,-4.425 3.605,-8.024 8.031,-8.024 0.635,0 1.152,-0.517 1.152,-1.158 V 23.208 H 25.309 C 25.452,22.43 25.6,21.651 25.76,20.897 H 11.494 V 5.115 C 11.494,4.479 10.976,3.957 10.342,3.957 4.639,3.957 0,8.596 0,14.298 v 72.516 c 0,5.703 4.639,10.342 10.342,10.342 H 49.658 C 55.36,97.155 60,92.517 60,86.813 V 14.298 C 60,8.596 55.36,3.957 49.658,3.957 Z M 2.311,14.298 c 0,-2.394 1.058,-4.55 2.727,-6.017 C 5.565,7.817 6.153,7.42 6.789,7.104 7.104,6.95 7.437,6.808 7.775,6.695 8.227,6.54 8.696,6.428 9.184,6.356 v 70.188 c -2.763,0.309 -5.204,1.71 -6.873,3.76 V 14.298 Z M 57.684,80.304 C 57.262,79.787 56.798,79.318 56.293,78.896 55.913,78.576 55.516,78.285 55.088,78.023 54.666,77.761 54.227,77.53 53.763,77.328 53.152,77.061 52.504,76.853 51.838,76.711 51.506,76.64 51.161,76.58 50.817,76.545 V 6.356 c 0.487,0.071 0.957,0.184 1.408,0.339 0.339,0.112 0.671,0.255 0.986,0.409 0.635,0.315 1.223,0.713 1.752,1.177 0.089,0.077 0.172,0.154 0.255,0.237 0.09,0.083 0.173,0.166 0.25,0.249 1.372,1.444 2.216,3.392 2.216,5.53 z"
   id="path834"
   style="fill:#f7a26c;fill-opacity:1" />
		</g>
		<g
   id="g840"
   style="fill:#f7a26c;fill-opacity:1">
			<path
   fill="#164194"
   d="M 49.658,3.957 C 49.022,3.957 48.5,4.479 48.5,5.115 V 20.897 H 34.678 c 0.143,0.719 0.279,1.497 0.397,2.311 H 48.5 v 54.423 c 0,0.642 0.522,1.158 1.158,1.158 4.426,0 8.025,3.6 8.025,8.024 0,2.216 -0.897,4.224 -2.353,5.673 -0.457,0.458 -0.962,0.855 -1.515,1.194 -0.439,0.267 -0.909,0.493 -1.402,0.677 -0.124,0.042 -0.249,0.083 -0.374,0.125 -0.374,0.118 -0.767,0.208 -1.164,0.268 -0.397,0.065 -0.802,0.095 -1.218,0.095 H 10.342 C 9.926,94.845 9.516,94.816 9.118,94.75 8.72,94.69 8.334,94.601 7.953,94.482 7.829,94.44 7.704,94.399 7.579,94.357 7.092,94.173 6.623,93.947 6.178,93.68 5.625,93.341 5.12,92.944 4.663,92.486 3.207,91.037 2.31,89.029 2.31,86.813 c 0,-4.425 3.605,-8.024 8.031,-8.024 0.635,0 1.152,-0.517 1.152,-1.158 V 23.208 H 25.309 C 25.452,22.43 25.6,21.651 25.76,20.897 H 11.494 V 5.115 C 11.494,4.479 10.976,3.957 10.342,3.957 4.639,3.957 0,8.596 0,14.298 v 72.516 c 0,5.703 4.639,10.342 10.342,10.342 H 49.658 C 55.36,97.155 60,92.517 60,86.813 V 14.298 C 60,8.596 55.36,3.957 49.658,3.957 Z M 2.311,14.298 c 0,-2.394 1.058,-4.55 2.727,-6.017 C 5.566,7.811 6.154,7.42 6.79,7.104 7.105,6.944 7.437,6.807 7.776,6.695 8.227,6.54 8.696,6.428 9.184,6.356 v 70.188 c -2.763,0.309 -5.204,1.71 -6.873,3.76 V 14.298 Z M 57.684,80.304 C 57.262,79.787 56.798,79.318 56.293,78.896 55.913,78.576 55.516,78.285 55.088,78.023 54.666,77.761 54.227,77.53 53.763,77.328 53.152,77.061 52.504,76.853 51.838,76.711 51.506,76.634 51.161,76.58 50.817,76.538 V 6.356 c 0.487,0.071 0.957,0.184 1.408,0.339 0.339,0.112 0.671,0.249 0.986,0.409 0.635,0.315 1.223,0.707 1.752,1.177 0.089,0.077 0.172,0.154 0.255,0.237 0.09,0.083 0.173,0.166 0.25,0.249 1.372,1.444 2.216,3.392 2.216,5.53 z"
   id="path838"
   style="fill:#f7a26c;fill-opacity:1" />
		</g>
		<g
   id="g844"
   style="fill:#f7a26c;fill-opacity:1">
			<path
   fill="#164194"
   d="m 37.998,54.197 c 0.25,-0.214 0.404,-0.522 0.416,-0.855 0.041,-0.968 0.707,-18.657 -0.95,-30.134 -0.119,-0.808 -0.244,-1.58 -0.387,-2.311 -0.469,-2.471 -1.081,-4.509 -1.871,-5.815 -0.184,-0.297 -0.487,-0.505 -0.831,-0.558 -0.102,-0.019 -0.208,-0.019 -0.315,-0.007 0.155,-0.344 0.31,-0.677 0.452,-0.944 0.118,-0.231 0.154,-0.499 0.106,-0.754 C 32.853,3.048 29.931,0.814 29.361,0.464 28.607,0.001 27.781,-0.118 26.985,0.119 26.676,0.214 26.421,0.44 26.272,0.725 26.123,1.01 26.1,1.354 26.207,1.658 c 0.012,0.035 1.129,3.457 -1.093,11.708 -0.06,0.219 -0.992,3.611 -1.782,7.531 -0.154,0.754 -0.303,1.532 -0.439,2.311 -0.268,1.545 -0.487,3.095 -0.6,4.503 -0.024,0.261 -0.659,6.421 -0.434,10.876 0.012,0.237 0.095,0.463 0.237,0.653 0.397,0.522 0.903,1.295 1.277,1.99 -0.16,-0.013 -0.297,-0.036 -0.41,-0.06 -0.339,-0.065 -0.689,0.018 -0.962,0.231 -0.273,0.214 -0.439,0.534 -0.452,0.879 -0.035,0.736 -0.808,18.076 1.824,27.812 0.137,0.6 1.432,5.887 5.103,7.122 0.089,0.029 0.184,0.048 0.273,0.054 v 13.937 c 0,0.653 0.534,1.182 1.188,1.182 0.659,0 1.188,-0.528 1.188,-1.182 V 77.298 l 0.083,-0.012 c 1.604,-0.226 6.837,-2.328 6.837,-19.935 0,-0.393 -0.202,-0.755 -0.522,-0.975 -0.321,-0.226 -0.737,-0.268 -1.1,-0.131 -0.006,0 -0.125,0.048 -0.32,0.096 0.82,-1.217 1.877,-2.132 1.895,-2.144 z m -1.936,-1.443 c -0.767,0.73 -2.411,2.477 -3.023,4.49 -0.101,0.327 -0.06,0.678 0.119,0.969 0.178,0.291 0.475,0.487 0.808,0.546 0.611,0.113 1.194,0.113 1.693,0.065 -0.238,13.323 -3.653,15.658 -4.532,16.038 V 25.608 c 0,-0.654 -0.529,-1.188 -1.188,-1.188 -0.653,0 -1.188,0.534 -1.188,1.188 v 49.129 c -1.753,-1.016 -2.792,-4.009 -3.071,-5.215 -2.15,-7.96 -1.931,-21.688 -1.806,-25.881 0.475,0.012 1.01,-0.023 1.49,-0.16 0.57,-0.16 0.939,-0.713 0.861,-1.301 -0.189,-1.402 -1.443,-3.279 -2.008,-4.069 -0.172,-4.247 0.434,-10.098 0.44,-10.181 0.118,-1.455 0.362,-3.095 0.653,-4.723 0.143,-0.778 0.291,-1.557 0.451,-2.311 0.767,-3.707 1.628,-6.849 1.64,-6.902 1.413,-5.251 1.567,-8.756 1.426,-10.822 1.419,1.865 2.756,6.403 3.386,9.682 -0.404,0.832 -1.212,2.632 -1.271,3.784 -0.018,0.362 0.131,0.713 0.404,0.95 0.267,0.237 0.629,0.339 0.985,0.279 0.096,-0.018 0.672,-0.125 1.378,-0.457 0.375,0.932 0.695,2.114 0.969,3.486 0.143,0.719 0.279,1.497 0.397,2.311 1.32,8.959 1.224,23.001 0.987,29.547 z"
   id="path842"
   style="fill:#f7a26c;fill-opacity:1" />
		</g>
	</g>
</g>
<g
   id="Layer_2">
</g>
</svg>
